# xmcd CD database file
#
# Track frame offsets:
#	150
#	13800
#	23361
#	28808
#	40543
#	52250
#	67377
#	79695
#	91288
#	103926
#	116244
#	128055
#	141850
#	156421
#	168678
#	180463
#	194854
#
# Disc length: 2758 seconds
#
# Revision: 0
# Processed by: cddbd v1.5.2PL0 Copyright (c) Steve Scherf et al.
# Submitted via: CDex 1.70beta2
#
DISCID=f80ac411
DTITLE=Various Artist - Country Roots - CD 11
DYEAR=2007
DGENRE=Country Classics
TTITLE0=Red Foley And Ernest Tubb - It's The Mileage That's Slowin' Us Down
TTITLE1=Bob Wills - Get Along Home Cindy
TTITLE2=Gene Autry - I'm An Old Cowhand
TTITLE3=Red Foley - The Rosary
TTITLE4=Hank Williams - Settin' The Woods On Fire
TTITLE5=Jimmie Rodgers - In The Jailhouse Now No.1
TTITLE6=Hank Williams - Move It On Over
TTITLE7=Roy Acuff - Waltz Of The Wind
TTITLE8=Tex Ritter - I'm Waisting My Tears On You
TTITLE9=Gene Autry - Deep In The Heart Og Texas
TTITLE10=The Carter Family - River Of Jordan
TTITLE11=Roy Acuff - Freight Train Blues
TTITLE12=Gene Autry - South Of The Border
TTITLE13=The Carter Family - I Ain't Gonna Work Tomorrow
TTITLE14=Merle Travis - Fat Gal
TTITLE15=The Carter Family - Little Moses
TTITLE16=Hank Williams - Your Cheatin' Heart
EXTD=YEAR: 2007
EXTT0=
EXTT1=
EXTT2=
EXTT3=
EXTT4=
EXTT5=
EXTT6=
EXTT7=
EXTT8=
EXTT9=
EXTT10=
EXTT11=
EXTT12=
EXTT13=
EXTT14=
EXTT15=
EXTT16=
PLAYORDER=
